<?xml version="1.0" encoding="utf-8"?>
<!-- Generator: Adobe Illustrator 27.5.0, SVG Export Plug-In . SVG Version: 6.00 Build 0)  -->
<svg version="1.1" id="레이어_1" xmlns="http://www.w3.org/2000/svg" xmlns:xlink="http://www.w3.org/1999/xlink" x="0px"
	 y="0px" viewBox="0 0 417.1 163.3" style="enable-background:new 0 0 417.1 163.3;" xml:space="preserve">
<path d="M50.2,0h173.2c2,0,3.9,0.8,5.2,2.2l0,0c1.3,1.3,2.2,3.2,2.2,5.2v104.5c0,2-0.8,3.9-2.2,5.2s-3.2,2.2-5.2,2.2H50.2
	c-2,0-3.9-0.8-5.2-2.2l0,0c-1.3-1.4-2.2-3.2-2.2-5.2V7.4c0-2,0.8-3.9,2.2-5.2l0,0l0,0l0,0l0,0C46.3,0.8,48.2,0,50.2,0L50.2,0z
	 M219.3,11.5h-165v96.3h165L219.3,11.5L219.3,11.5z"/>
<path d="M121.8,107.8h30.1h3.8l1.5,3.6l9.8,23.5l3.3,8h-8.6h-49.7h-8.6l3.3-8l9.8-23.5l1.5-3.6H121.8L121.8,107.8z M148,119.4h-22.4
	l-5,12H153L148,119.4z"/>
<path d="M309.8,31.8h40.1h3.8l1.5,3.6L375,75.8l3.3,8h-8.6H290h-8.6l3.3-8l19.8-40.5l1.5-3.6L309.8,31.8L309.8,31.8z M346.1,43.3
	h-32.4l-15,29h62.4L346.1,43.3z"/>
<path d="M324.1,138.7c0,0.6,2.6,1,5.8,1c3.2,0,5.8-0.5,5.8-1V74.6c0-0.6-2.6-1-5.8-1c-3.2,0-5.8,0.5-5.8,1V138.7z"/>
<path d="M417.1,140.6c0-3.2-2.6-5.8-5.8-5.8H210c-3.2,0-5.8,2.6-5.8,5.8s2.6,5.8,5.8,5.8h199.1v5.4H210c-3.2,0-5.8,2.6-5.8,5.8
	s2.6,5.8,5.8,5.8h201.3c3.2,0,5.8-2.6,5.8-5.8V140.6z"/>
<path d="M0,157.5c0,3.2,2.6,5.8,5.8,5.8h201.3c3.2,0,5.8-2.6,5.8-5.8s-2.6-5.8-5.8-5.8H8v-5.4h199.1c3.2,0,5.8-2.6,5.8-5.8
	s-2.6-5.8-5.8-5.8H5.8c-3.2,0-5.8,2.6-5.8,5.8V157.5z"/>
</svg>
