<?xml version="1.0" encoding="utf-8"?>
<!-- Generator: Adobe Illustrator 27.5.0, SVG Export Plug-In . SVG Version: 6.00 Build 0)  -->
<svg version="1.1" id="레이어_1" xmlns="http://www.w3.org/2000/svg" xmlns:xlink="http://www.w3.org/1999/xlink" x="0px"
	 y="0px" viewBox="0 0 188 142.9" style="enable-background:new 0 0 188 142.9;" xml:space="preserve">
<path d="M7.4,0h173.2c2,0,3.9,0.8,5.2,2.2l0,0c1.3,1.3,2.2,3.2,2.2,5.2v104.5c0,2-0.8,3.9-2.2,5.2s-3.2,2.2-5.2,2.2H7.4
	c-2,0-3.9-0.8-5.2-2.2l0,0c-1.3-1.4-2.2-3.2-2.2-5.2V7.4c0-2,0.8-3.9,2.2-5.2l0,0l0,0l0,0l0,0C3.5,0.8,5.4,0,7.4,0L7.4,0z
	 M176.5,11.5h-165v96.3h165V11.5L176.5,11.5z"/>
<path d="M79,107.8h30.1h3.8l1.5,3.6l9.8,23.5l3.3,8h-8.6H69.2h-8.6l3.3-8l9.8-23.5l1.5-3.6L79,107.8L79,107.8z M105.2,119.4H82.8
	l-5,12h32.4L105.2,119.4z"/>
</svg>
