<?xml version="1.0" encoding="utf-8"?>
<!-- Generator: Adobe Illustrator 27.5.0, SVG Export Plug-In . SVG Version: 6.00 Build 0)  -->
<svg version="1.1" xmlns="http://www.w3.org/2000/svg" xmlns:xlink="http://www.w3.org/1999/xlink" x="0px" y="0px"
	 viewBox="0 0 492 492" style="enable-background:new 0 0 492 492;" xml:space="preserve">
<style type="text/css">
	.st0{fill-rule:evenodd;clip-rule:evenodd;}
</style>
<g id="Layer_1">
	<g>
		<path d="M134.13,60.88h224.25h5.76v5.76V484.7v5.76h-5.76H134.13h-5.76v-5.76V66.64v-5.76H134.13L134.13,60.88z M352.63,72.4
			H139.89v406.54h212.73V72.4z"/>
		<path d="M164.75,90.56h163.01h5.76v5.76V484.7v5.76h-5.76H164.75h-5.76v-5.76V96.32v-5.76H164.75L164.75,90.56z M322.01,102.08
			H170.51v376.87h151.49V102.08z"/>
		<path class="st0" d="M193.15,262.45c7.75,0,14.03,6.28,14.03,14.03c0,7.75-6.28,14.03-14.03,14.03c-7.75,0-14.03-6.28-14.03-14.03
			C179.12,268.73,185.4,262.45,193.15,262.45z"/>
	</g>
</g>
<g id="Master_Layer_8">
</g>
</svg>
