<?xml version="1.0" encoding="utf-8"?>
<!-- Generator: Adobe Illustrator 27.5.0, SVG Export Plug-In . SVG Version: 6.00 Build 0)  -->
<svg version="1.1" xmlns="http://www.w3.org/2000/svg" xmlns:xlink="http://www.w3.org/1999/xlink" x="0px" y="0px"
	 viewBox="0 0 492 492" style="enable-background:new 0 0 492 492;" xml:space="preserve">
<style type="text/css">
	.st0{fill-rule:evenodd;clip-rule:evenodd;}
</style>
<g id="Layer_1">
	<path d="M77.53,227.02c-1.51,0-2.73,2.58-2.73,5.76c0,3.18,1.22,5.76,2.73,5.76h169.32c1.51,0,2.73-2.58,2.73-5.76
		c0-3.18-1.22-5.76-2.73-5.76H77.53z"/>
	<path d="M399.34,410.81c3.18,0,5.76-2.58,5.76-5.76V203.73c0-3.18-2.58-5.76-5.76-5.76c-3.18,0-5.76,2.58-5.76,5.76v199.08h-5.43
		V203.73c0-3.18-2.58-5.76-5.76-5.76c-3.18,0-5.76,2.58-5.76,5.76v201.31c0,3.18,2.58,5.76,5.76,5.76H399.34z"/>
	<path d="M70.01,410.81c3.18,0,5.76-2.58,5.76-5.76V203.73c0-3.18-2.58-5.76-5.76-5.76c-3.18,0-5.76,2.58-5.76,5.76v199.08h-5.43
		V203.73c0-3.18-2.58-5.76-5.76-5.76c-3.18,0-5.76,2.58-5.76,5.76v201.31c0,3.18,2.58,5.76,5.76,5.76H70.01z"/>
	<path d="M376.63,209.49H251.98v51.03h124.65V209.49L376.63,209.49z M246.22,197.97h136.17c3.18,0,5.76,2.58,5.76,5.76v62.55
		c0,3.18-2.58,5.76-5.76,5.76H246.22c-3.18,0-5.76-2.58-5.76-5.76v-62.55C240.46,200.55,243.04,197.97,246.22,197.97z"/>
	<path d="M382.39,334.59H246.22c-3.18,0-5.76-2.58-5.76-5.76v-62.55c0-3.18,2.58-5.76,5.76-5.76h136.17c3.18,0,5.76,2.58,5.76,5.76
		v62.55C388.15,332.01,385.57,334.59,382.39,334.59L382.39,334.59z M251.98,323.07h124.65v-51.03H251.98V323.07z"/>
	
		<ellipse transform="matrix(0.9871 -0.1602 0.1602 0.9871 -33.5855 53.3807)" class="st0" cx="314.31" cy="235.01" rx="7.99" ry="7.99"/>
	
		<ellipse transform="matrix(0.9874 -0.1581 0.1581 0.9874 -43.0788 53.4174)" class="st0" cx="314.31" cy="297.55" rx="7.99" ry="7.99"/>
	<path d="M68.93,46.2h173.25c2.02,0,3.87,0.83,5.22,2.18l0.01-0.01c1.34,1.34,2.17,3.19,2.17,5.23v104.54
		c0,2.04-0.83,3.89-2.17,5.23c-1.34,1.34-3.19,2.17-5.23,2.17H68.93c-2.04,0-3.89-0.83-5.23-2.17l0.01-0.01
		c-1.35-1.35-2.18-3.2-2.18-5.22V53.6c0-2.02,0.83-3.86,2.17-5.21l0,0l0.01-0.01l0.01-0.01l0,0C65.07,47.03,66.92,46.2,68.93,46.2
		L68.93,46.2z M238.07,57.72H73.05v96.3h165.01V57.72z"/>
	<path d="M140.52,154.03h30.08h3.82l1.49,3.55l9.82,23.48l3.33,7.97h-8.64H130.7h-8.64l3.33-7.97l9.82-23.48l1.49-3.55H140.52
		L140.52,154.03z M166.78,165.55h-22.43l-5,11.96h32.44L166.78,165.55z"/>
	<path d="M328.59,77.96h40.08h3.82l1.49,3.55l19.82,40.52l3.33,7.97h-8.64h-79.72h-8.64l3.33-7.97l19.82-40.52l1.49-3.55H328.59
		L328.59,77.96z M364.84,89.48h-32.43l-15,29h62.44L364.84,89.48z"/>
	<path d="M342.87,184.91c0,0.57,2.58,1.03,5.76,1.03c3.18,0,5.76-0.46,5.76-1.03v-64.13c0-0.57-2.58-1.03-5.76-1.03
		c-3.18,0-5.76,0.46-5.76,1.03V184.91z"/>
	<path d="M435.87,186.79c0-3.18-2.58-5.76-5.76-5.76H228.8c-3.18,0-5.76,2.58-5.76,5.76c0,3.18,2.58,5.76,5.76,5.76h199.08v5.43
		H228.8c-3.18,0-5.76,2.58-5.76,5.76c0,3.18,2.58,5.76,5.76,5.76h201.31c3.18,0,5.76-2.58,5.76-5.76V186.79z"/>
	<path d="M18.76,203.73c0,3.18,2.58,5.76,5.76,5.76h201.31c3.18,0,5.76-2.58,5.76-5.76c0-3.18-2.58-5.76-5.76-5.76H26.75v-5.43
		h199.08c3.18,0,5.76-2.58,5.76-5.76c0-3.18-2.58-5.76-5.76-5.76H24.52c-3.18,0-5.76,2.58-5.76,5.76V203.73z"/>
</g>
<g id="Master_Layer_2">
</g>
</svg>
